<?xml version="1.0" standalone="no"?>
<!DOCTYPE svg PUBLIC "-//W3C//DTD SVG 20010904//EN"
 "http://www.w3.org/TR/2001/REC-SVG-20010904/DTD/svg10.dtd">
<svg version="1.0" xmlns="http://www.w3.org/2000/svg"
 width="75.000000pt" height="75.000000pt" viewBox="0 0 75.000000 75.000000"
 preserveAspectRatio="xMidYMid meet">
<metadata>
Created by potrace 1.11, written by Peter Selinger 2001-2013
</metadata>
<g transform="translate(0.000000,75.000000) scale(0.100000,-0.100000)"
fill="#000000" stroke="none">
<path d="M320 633 c-19 -4 -194 -493 -181 -506 4 -4 30 -7 56 -5 47 3 49 4 62
44 l14 41 89 0 89 0 13 -41 c13 -40 14 -41 62 -44 27 -2 53 1 58 6 5 5 -27
110 -78 253 -48 134 -88 245 -89 246 -3 5 -79 9 -95 6z m67 -248 l21 -65 -49
0 -49 0 21 53 c12 28 22 58 22 65 1 28 14 8 34 -53z"/>
</g>
</svg>
